<svg xmlns="http://www.w3.org/2000/svg" width="512" height="512" viewBox="0 0 512 512" style="overflow: visible;" data-bbox="0 -2.842170943040401e-14 512 512"><g transform="matrix(1, 0, 0, 1, 0, -0.000015258790881489404)" data-uid="o_f426a1n6j_4"><path fill="#42b883" transform="matrix(1, 0, 0, 1, 0, 0.000015258790881489404)" data-type="circle" data-cx="256" data-cy="256" data-r="256" d="M256,256m-256,0a256,256 0 1, 0 512,0a256,256 0 1, 0 -512,0" data-uid="o_f426a1n6j_5"></path><path d="M512 256c0-16.887-1.653-33.386-4.773-49.359l-51.989-51.989l-22.014 27.146H314.173l-27.146-27.146
	l-43.036 27.146h-98.03l-27.146-27.146L56.76 216.706l66.609 66.609l-34.532 82.532l145.205 145.205
	c7.24 0.616 14.56 0.948 21.958 0.948C397.385 512 512 397.385 512 256z" fill="#35495e" transform="matrix(1, 0, 0, 1, 0, 0)" data-uid="o_f426a1n6j_6"></path><path fill="#FFDC00" transform="matrix(1, 0, 0, 1, 0, 0)" data-type="rect" data-x="98.84" data-y="313.79" data-width="42.05" data-height="42.05" d="M98.84 313.79H140.89 V355.84000000000003 H98.84 Z" data-uid="o_f426a1n6j_7"></path><path fill="#FFDC00" transform="matrix(1, 0, 0, 1, 0, 0)" data-type="rect" data-x="234.97" data-y="164.65" data-width="42.05" data-height="42.05" d="M234.97 164.65H277.02 V206.7 H234.97 Z" data-uid="o_f426a1n6j_8"></path><path fill="#FFC000" transform="matrix(1, 0, 0, 1, 0, 0)" data-type="rect" data-x="255.95" data-y="164.65" data-width="21.07" data-height="42.05" d="M255.95 164.65H277.02 V206.7 H255.95 Z" data-uid="o_f426a1n6j_9"></path><path fill="#FFDC00" transform="matrix(1, 0, 0, 1, 0, 0)" data-type="rect" data-x="66.762" data-y="164.65" data-width="42.05" data-height="42.05" d="M66.762 164.65H108.812 V206.7 H66.762 Z" data-uid="o_f426a1n6j_10"></path><path d="M331.861 195.679H402v-20H287.027v-21.027h-62.055v21.027H118.816v-21.027H56.762v62.054h62.055
	v-21.027h58.295c-37.408 23.112-63.773 62.445-69.218 108.114H88.838v62.054h62.055v-62.054h-22.845
	c7.24-52.306 46.287-94.585 96.925-106.615v19.528h62.055v-18.764c54.674 14.425 95.107 64.295 95.107 123.438v13.44h20v-13.44
	C402.135 268.318 373.998 221.708 331.861 195.679z M98.816 196.707H76.762v-22.054h22.055L98.816 196.707L98.816 196.707z
	 M130.893 345.848h-22.055v-22.054h22.055V345.848z M267.027 196.707h-22.055v-22.054h22.055V196.707z" fill="#FFFFFF" transform="matrix(1, 0, 0, 1, 0, 0)" data-uid="o_f426a1n6j_11"></path><path fill="#FFC000" transform="matrix(1, 0, 0, 1, 0, 0)" data-type="rect" data-x="403.18" data-y="164.65" data-width="42.05" data-height="42.05" d="M403.18 164.65H445.23 V206.7 H403.18 Z" data-uid="o_f426a1n6j_12"></path><path fill="#FFC000" transform="matrix(1, 0, 0, 1, 0, 0)" data-type="rect" data-x="371.11" data-y="313.79" data-width="42.05" data-height="42.05" d="M371.11 313.79H413.16 V355.84000000000003 H371.11 Z" data-uid="o_f426a1n6j_13"></path><path d="M455.238 216.707v-62.054h-62.055v21.027H287.027v-21.027h-31.075v20h11.075v22.054h-11.075v20
	h31.075V197.96c49.156 12.969 86.793 54.582 93.887 105.834h-19.807v62.054h62.055v-62.054h-22.086
	c-5.447-45.675-31.822-85.009-69.242-108.114h61.35v21.027H455.238z M403.162 345.848h-22.055v-22.054h22.055V345.848z
	 M413.184 174.652h22.055v22.054h-22.055V174.652z" fill="#E0E0E0" transform="matrix(1, 0, 0, 1, 0, 0)" data-uid="o_f426a1n6j_14"></path></g></svg>